<svg xmlns="http://www.w3.org/2000/svg" viewBox="0 0 512 512" role="img" aria-labelledby="title desc">
  <title id="title">Transportes PT Icon</title>
  <desc id="desc">Rounded badge icon with bus and ferry over waves in Portuguese colors.</desc>

  <defs>
    <linearGradient id="bg" x1="0" y1="0" x2="1" y2="1">
      <stop offset="0%" stop-color="#046A38"/>
      <stop offset="55%" stop-color="#046A38"/>
      <stop offset="55.1%" stop-color="#DA291C"/>
      <stop offset="100%" stop-color="#DA291C"/>
    </linearGradient>
    <filter id="shadow" x="-20%" y="-20%" width="140%" height="140%">
      <feDropShadow dx="0" dy="8" stdDeviation="10" flood-color="#000000" flood-opacity="0.25"/>
    </filter>
  </defs>

  <rect x="28" y="28" width="456" height="456" rx="108" fill="url(#bg)" filter="url(#shadow)"/>

  <circle cx="256" cy="256" r="156" fill="#FFFFFF" fill-opacity="0.14"/>

  <g fill="#FFFFFF">
    <rect x="132" y="168" width="248" height="108" rx="26"/>
    <rect x="152" y="188" width="208" height="44" rx="10" fill="#046A38"/>
    <circle cx="184" cy="274" r="14" fill="#2A2A2A"/>
    <circle cx="328" cy="274" r="14" fill="#2A2A2A"/>
  </g>

  <g fill="#FFD100">
    <path d="M200 296h112l40 38H160z"/>
    <rect x="220" y="282" width="72" height="16" rx="6"/>
  </g>

  <g fill="none" stroke="#FFFFFF" stroke-linecap="round" stroke-width="13">
    <path d="M140 354c24 0 24 12 48 12s24-12 48-12 24 12 48 12 24-12 48-12 24 12 48 12"/>
    <path d="M140 386c24 0 24 12 48 12s24-12 48-12 24 12 48 12 24-12 48-12 24 12 48 12" opacity="0.88"/>
  </g>
</svg>
